HIERARCHY
ROOT hip
{
  OFFSET 2.40861 87.2529 219.377
  CHANNELS 6 Xposition Yposition Zposition Zrotation Xrotation Yrotation
  JOINT abdomen
  {
    OFFSET 0 20.6881 -0.73152
    CHANNELS 3 Zrotation Xrotation Yrotation
    JOINT chest
    {
      OFFSET 0 11.7043 -0.48768
      CHANNELS 3 Zrotation Xrotation Yrotation
      JOINT neck
      {
        OFFSET 0 22.1894 -2.19456
        CHANNELS 3 Zrotation Xrotation Yrotation
        JOINT head
        {
          OFFSET -0.24384 7.07133 1.2192
          CHANNELS 3 Zrotation Xrotation Yrotation
          JOINT leftEye
          {
            OFFSET 4.14528 8.04674 8.04672
            CHANNELS 3 Zrotation Xrotation Yrotation
            End Site
            {
              OFFSET 1 0 0
            }
          }
          JOINT rightEye
          {
            OFFSET -3.6576 8.04674 8.04672
            CHANNELS 3 Zrotation Xrotation Yrotation
            End Site
            {
              OFFSET 1 0 0
            }
          }
        }
      }
      JOINT rCollar
      {
        OFFSET -2.68224 19.2634 -4.8768
        CHANNELS 3 Zrotation Xrotation Yrotation
        JOINT rShldr
        {
          OFFSET -8.77824 -1.95073 1.46304
          CHANNELS 3 Zrotation Xrotation Yrotation
          JOINT rForeArm
          {
            OFFSET -28.1742 -1.7115 0.48768
            CHANNELS 3 Zrotation Xrotation Yrotation
            JOINT rHand
            {
              OFFSET -22.5879 0.773209 7.07136
              CHANNELS 3 Zrotation Xrotation Yrotation
              JOINT rThumb1
              {
                OFFSET -1.2192 -0.487915 3.41376
                CHANNELS 3 Zrotation Xrotation Yrotation
                JOINT rThumb2
                {
                  OFFSET -3.37035 -0.52449 3.41376
                  CHANNELS 3 Zrotation Xrotation Yrotation
                  End Site
                  {
                    OFFSET -1.78271 -1.18214 1.43049
                  }
                }
              }
              JOINT rIndex1
              {
                OFFSET -7.75947 0.938293 5.60832
                CHANNELS 3 Zrotation Xrotation Yrotation
                JOINT rIndex2
                {
                  OFFSET -2.54057 -0.884171 1.56538
                  CHANNELS 3 Zrotation Xrotation Yrotation
                  End Site
                  {
                    OFFSET -1.62519 -0.234802 1.16502
                  }
                }
              }
              JOINT rMid1
              {
                OFFSET -8.24714 1.18213 3.41376
                CHANNELS 3 Zrotation Xrotation Yrotation
                JOINT rMid2
                {
                  OFFSET -3.10165 -0.590103 1.0647
                  CHANNELS 3 Zrotation Xrotation Yrotation
                  End Site
                  {
                    OFFSET -2.48547 -0.328903 0.83742
                  }
                }
              }
              JOINT rRing1
              {
                OFFSET -8.82822 0.546677 1.51678
                CHANNELS 3 Zrotation Xrotation Yrotation
                JOINT rRing2
                {
                  OFFSET -2.60934 -0.819778 -0.0198488
                  CHANNELS 3 Zrotation Xrotation Yrotation
                  End Site
                  {
                    OFFSET -2.33842 -0.294052 0.168128
                  }
                }
              }
              JOINT rPinky1
              {
                OFFSET -8.27202 -0.0477905 -0.4584
                CHANNELS 3 Zrotation Xrotation Yrotation
                JOINT rPinky2
                {
                  OFFSET -1.82734 -0.647385 -0.700984
                  CHANNELS 3 Zrotation Xrotation Yrotation
                  End Site
                  {
                    OFFSET -1.69225 -0.51767 -0.607171
                  }
                }
              }
            }
          }
        }
      }
      JOINT lCollar
      {
        OFFSET 2.68224 19.2634 -4.8768
        CHANNELS 3 Zrotation Xrotation Yrotation
        JOINT lShldr
        {
          OFFSET 8.77824 -1.95073 1.46304
          CHANNELS 3 Zrotation Xrotation Yrotation
          JOINT lForeArm
          {
            OFFSET 28.1742 -1.7115 0.48768
            CHANNELS 3 Zrotation Xrotation Yrotation
            JOINT lHand
            {
              OFFSET 22.5879 0.773209 7.07136
              CHANNELS 3 Zrotation Xrotation Yrotation
              JOINT lThumb1
              {
                OFFSET 1.2192 -0.487915 3.41376
                CHANNELS 3 Zrotation Xrotation Yrotation
                JOINT lThumb2
                {
                  OFFSET 3.37035 -0.52449 3.41376
                  CHANNELS 3 Zrotation Xrotation Yrotation
                  End Site
                  {
                    OFFSET 1.78271 -1.18214 1.43049
                  }
                }
              }
              JOINT lIndex1
              {
                OFFSET 7.75947 0.938293 5.60832
                CHANNELS 3 Zrotation Xrotation Yrotation
                JOINT lIndex2
                {
                  OFFSET 2.54057 -0.884171 1.56538
                  CHANNELS 3 Zrotation Xrotation Yrotation
                  End Site
                  {
                    OFFSET 1.62519 -0.234802 1.16502
                  }
                }
              }
              JOINT lMid1
              {
                OFFSET 8.24714 1.18213 3.41376
                CHANNELS 3 Zrotation Xrotation Yrotation
                JOINT lMid2
                {
                  OFFSET 3.10165 -0.590103 1.0647
                  CHANNELS 3 Zrotation Xrotation Yrotation
                  End Site
                  {
                    OFFSET 2.48547 -0.328903 0.83742
                  }
                }
              }
              JOINT lRing1
              {
                OFFSET 8.82822 0.546677 1.51678
                CHANNELS 3 Zrotation Xrotation Yrotation
                JOINT lRing2
                {
                  OFFSET 2.60934 -0.819778 -0.0198488
                  CHANNELS 3 Zrotation Xrotation Yrotation
                  End Site
                  {
                    OFFSET 2.33842 -0.294052 0.168128
                  }
                }
              }
              JOINT lPinky1
              {
                OFFSET 8.27202 -0.0477905 -0.4584
                CHANNELS 3 Zrotation Xrotation Yrotation
                JOINT lPinky2
                {
                  OFFSET 1.82734 -0.647385 -0.700984
                  CHANNELS 3 Zrotation Xrotation Yrotation
                  End Site
                  {
                    OFFSET 1.69225 -0.51767 -0.607171
                  }
                }
              }
            }
          }
        }
      }
    }
  }
  JOINT rButtock
  {
    OFFSET -8.77824 4.35084 1.2192
    CHANNELS 3 Zrotation Xrotation Yrotation
    JOINT rThigh
    {
      OFFSET 0 -1.70687 -2.19456
      CHANNELS 3 Zrotation Xrotation Yrotation
      JOINT rShin
      {
        OFFSET 0 -36.8199 0.73152
        CHANNELS 3 Zrotation Xrotation Yrotation
        JOINT rFoot
        {
          OFFSET 0.73152 -45.1104 -5.12064
          CHANNELS 3 Zrotation Xrotation Yrotation
          End Site
          {
            OFFSET -1.1221 -3.69964 12.103
          }
        }
      }
    }
  }
  JOINT lButtock
  {
    OFFSET 8.77824 4.35084 1.2192
    CHANNELS 3 Zrotation Xrotation Yrotation
    JOINT lThigh
    {
      OFFSET 0 -1.70687 -2.19456
      CHANNELS 3 Zrotation Xrotation Yrotation
      JOINT lShin
      {
        OFFSET 0 -36.8199 0.73152
        CHANNELS 3 Zrotation Xrotation Yrotation
        JOINT lFoot
        {
          OFFSET -0.73152 -45.1104 -5.12064
          CHANNELS 3 Zrotation Xrotation Yrotation
          End Site
          {
            OFFSET 1.1221 -3.69964 12.103
          }
        }
      }
    }
  }
}
MOTION
Frames:	5
Frame Time:	0.00833333
-1.7957 85.1103 -130.291 -0.245777 -0.000593448 0.00419767 0.323381 -0.00164675 0.0092429 0.0892417 -0.00254733 0.015461 8.77112e-016 -7.95139e-016 5.5454e-024 2.6339e-015 3.18055e-015 1.0871e-017 -0 0 0 -0 0 0 5.45295e-016 -9.51216e-018 1.98785e-016 1.11123e-014 -3.41661e-016 7.95139e-016 1.57139e-013 -5.28767e-014 0 1.78687e-012 1.13804e-014 -6.36111e-015 4.21475e-012 -9.002e-014 9.54166e-015 7.26995e-012 -1.59028e-013 1.43125e-014 4.22417e-012 -8.82604e-014 -3.18055e-015 7.73091 5.47488 0.417314 4.21592e-012 -8.94531e-014 1.27222e-014 2.90554 0.965183 0.102902 4.22529e-012 -8.94531e-014 1.03368e-014 10.2786 0.731801 0.0259123 4.21404e-012 -8.98507e-014 2.22639e-014 2.22167 -0.733487 -0.20892 4.48657e-016 -8.92978e-018 -1.98785e-016 7.18129e-015 -3.47873e-016 -7.95139e-016 1.56294e-013 4.01545e-014 -3.18055e-015 1.79044e-012 -8.32908e-014 2.22639e-014 4.22349e-012 -9.39164e-014 1.27222e-014 7.29738e-012 -1.62208e-013 1.90833e-014 4.22099e-012 -9.10434e-014 2.54444e-014 -7.73091 5.47488 -0.417314 4.22422e-012 -9.41245e-014 9.54166e-015 -2.90554 0.965183 -0.102902 4.21713e-012 -9.3727e-014 1.11319e-014 -10.2786 0.731801 -0.0259123 4.22775e-012 -9.34288e-014 3.18055e-015 -2.22167 -0.733487 0.20892 -2.03217e-016 0 -3.88251e-019 0.73998 -3.92204 -0.0606399 -0.00350549 1.55189 -0.0277767 -0.496427 2.36987 0.104817 2.03217e-016 0 3.88251e-019 -0.247571 -2.6651 0.0295788 0.0070947 -0.724822 0.061934 0.49216 3.38959 -0.125001 
-2.87214 80.8681 -132.372 -1.85399 0.715113 -0.54687 2.28268 6.14543 -1.98448 1.22716 -1.9814 -0.225315 -0.238265 3.93016 0.700266 -1.56153 -13.2519 0.767296 -0 0 0 -0 0 0 -3.90795e-014 6.21893e-014 2.14765e-014 18.9144 9.9841 2.08446 -20.1442 -17.9063 15.173 0.00968186 -2.18626 -0.306455 -4.42831e-010 7.01627e-009 1.51698e-009 -7.74544e-010 1.21928e-008 2.61975e-009 -4.42823e-010 7.01627e-009 1.51697e-009 7.73091 5.47488 0.417314 -4.4283e-010 7.01627e-009 1.51699e-009 2.90554 0.965183 0.102902 -4.42821e-010 7.01627e-009 1.51699e-009 10.2786 0.731801 0.0259123 -4.42832e-010 7.01627e-009 1.517e-009 2.22167 -0.733487 -0.20892 -3.91433e-014 6.2187e-014 2.11345e-014 -21.9339 12.651 2.11079 24.9377 -22.7473 -14.4414 -0.0803152 -6.29715 0.86586 -5.43203e-010 -7.34389e-009 -1.5998e-009 -9.11512e-010 -1.26645e-008 -2.77364e-009 -5.43205e-010 -7.34389e-009 -1.59979e-009 -7.73091 5.47488 -0.417314 -5.43201e-010 -7.34389e-009 -1.59981e-009 -2.90554 0.965183 -0.102902 -5.4321e-010 -7.34389e-009 -1.59981e-009 -10.2786 0.731801 -0.0259123 -5.43197e-010 -7.34389e-009 -1.59981e-009 -2.22167 -0.733487 0.20892 -2.03217e-016 0 -3.88251e-019 4.08025 -10.6747 0.895181 -0.2232 15.3821 -0.0250542 -0.732929 -2.68296 -2.65148 2.03217e-016 0 3.88251e-019 3.38108 -12.0688 2.89738 0.134229 29.6355 -0.418837 0.0625243 12.7945 -1.32727 
-2.99564 80.4345 -129.902 -3.51966 1.46405 -1.12725 4.80641 12.6217 -4.22716 2.42447 -4.05233 -0.496689 -0.614844 8.11173 1.47023 -2.77177 -27.3039 1.76778 -0 0 0 -0 0 0 -8.45538e-014 1.29805e-013 4.26517e-014 38.0652 20.5435 4.45204 -29.98 -32.2962 35.8678 -0.00563853 -4.51122 -0.633875 -9.33913e-010 1.47673e-008 3.19438e-009 -1.63347e-009 2.56632e-008 5.51656e-009 -9.33907e-010 1.47673e-008 3.19437e-009 7.73091 5.47488 0.417314 -9.33913e-010 1.47673e-008 3.19438e-009 2.90554 0.965183 0.102902 -9.33905e-010 1.47673e-008 3.19438e-009 10.2786 0.731801 0.0259123 -9.33914e-010 1.47673e-008 3.19439e-009 2.22167 -0.733487 -0.20892 -8.45802e-014 1.298e-013 4.23691e-014 -46.2266 25.9451 4.6622 35.8442 -41.4449 -37.7954 0.0465015 -12.9239 1.81315 -1.14095e-009 -1.54025e-008 -3.35731e-009 -1.91462e-009 -2.65614e-008 -5.82062e-009 -1.14095e-009 -1.54025e-008 -3.3573e-009 -7.73091 5.47488 -0.417314 -1.14095e-009 -1.54025e-008 -3.35732e-009 -2.90554 0.965183 -0.102902 -1.14096e-009 -1.54025e-008 -3.35732e-009 -10.2786 0.731801 -0.0259123 -1.14094e-009 -1.54025e-008 -3.35733e-009 -2.22167 -0.733487 0.20892 -2.03217e-016 0 -3.88251e-019 7.85662 -17.9302 1.98299 -0.465508 30.0401 -0.0322588 -1.51013 -7.99384 -5.60735 2.03217e-016 0 3.88251e-019 8.29094 -21.7406 6.23267 1.36527 61.7025 -1.72264 0.0708171 22.7871 -2.72491 
-3.00008 80.0926 -127.333 -5.02908 2.14574 -1.65003 7.54039 18.348 -6.25696 3.45288 -5.93869 -0.710275 -1.00821 11.7834 2.141 -3.34934 -39.7227 2.9136 -0 0 0 -0 0 0 -1.18329e-013 1.86587e-013 6.4032e-014 54.2875 29.7812 7.1003 -29.78 -36.8935 58.9796 -0.0415057 -6.55802 -0.924746 -1.33692e-009 2.1049e-008 4.55094e-009 -2.33817e-009 3.65787e-008 7.85921e-009 -1.33692e-009 2.1049e-008 4.55093e-009 7.73091 5.47488 0.417314 -1.33692e-009 2.1049e-008 4.55094e-009 2.90554 0.965183 0.102902 -1.33692e-009 2.1049e-008 4.55094e-009 10.2786 0.731801 0.0259123 -1.33692e-009 2.1049e-008 4.55095e-009 2.22167 -0.733487 -0.20892 -1.18327e-013 1.86579e-013 6.38009e-014 -69.2169 37.7185 7.81994 31.1393 -46.225 -67.9695 0.35741 -18.8737 2.72872 -1.63806e-009 -2.20315e-008 -4.79944e-009 -2.74913e-009 -3.79931e-008 -8.32096e-009 -1.63806e-009 -2.20315e-008 -4.79943e-009 -7.73091 5.47488 -0.417314 -1.63805e-009 -2.20315e-008 -4.79944e-009 -2.90554 0.965183 -0.102902 -1.63806e-009 -2.20315e-008 -4.79944e-009 -10.2786 0.731801 -0.0259123 -1.63805e-009 -2.20315e-008 -4.79945e-009 -2.22167 -0.733487 0.20892 -2.03217e-016 0 -3.88251e-019 11.4938 -24.1539 3.02513 -0.665204 43.0424 -0.0231744 -2.6875 -12.6657 -8.36 2.03217e-016 0 3.88251e-019 13.847 -30.5501 9.81386 106.186 88.7323 -106.413 0.569973 31.5434 -4.26437 
-3.03498 79.9435 -124.702 -6.17602 2.66001 -2.0279 9.77123 22.2986 -7.46429 4.09921 -7.36411 -0.77575 -1.21867 14.1879 2.52177 -3.48472 -48.0962 3.78239 -0 0 0 -0 0 0 -1.22856e-013 2.16282e-013 8.59247e-014 64.9254 35.8555 9.6837 -28.4041 -34.3736 74.3125 -0.0773613 -7.91016 -1.11889 -1.51975e-009 2.36575e-008 5.10542e-009 -2.65735e-009 4.11067e-008 8.81649e-009 -1.51975e-009 2.36575e-008 5.10541e-009 7.73091 5.47488 0.417314 -1.51975e-009 2.36575e-008 5.10542e-009 2.90554 0.965183 0.102902 -1.51974e-009 2.36575e-008 5.10542e-009 10.2786 0.731801 0.0259123 -1.51975e-009 2.36575e-008 5.10544e-009 2.22167 -0.733487 -0.20892 -1.2285e-013 2.16274e-013 8.57259e-014 -86.566 45.8742 11.246 27.8405 -41.1837 -86.0703 0.705613 -23.1472 3.44455 -1.88356e-009 -2.50866e-008 -5.45309e-009 -3.16218e-009 -4.3262e-008 -9.45474e-009 -1.88356e-009 -2.50866e-008 -5.45308e-009 -7.73091 5.47488 -0.417314 -1.88355e-009 -2.50866e-008 -5.45309e-009 -2.90554 0.965183 -0.102902 -1.88357e-009 -2.50866e-008 -5.45309e-009 -10.2786 0.731801 -0.0259123 -1.88355e-009 -2.50866e-008 -5.45311e-009 -2.22167 -0.733487 0.20892 -2.03217e-016 0 -3.88251e-019 14.2018 -27.8253 3.73164 -0.78874 51.9057 0.0501586 -3.81594 -15.8601 -10.4037 2.03217e-016 0 3.88251e-019 18.8324 -37.4796 13.0724 175.711 69.5257 -175.757 1.28792 37.2618 -5.67439 
